<?xml version="1.0" encoding="utf-8"?>
<!-- Generator: Adobe Illustrator 15.0.0, SVG Export Plug-In . SVG Version: 6.00 Build 0)  -->
<!DOCTYPE svg PUBLIC "-//W3C//DTD SVG 1.1//EN" "http://www.w3.org/Graphics/SVG/1.1/DTD/svg11.dtd">
<svg version="1.1" id="Capa_1" xmlns="http://www.w3.org/2000/svg" xmlns:xlink="http://www.w3.org/1999/xlink" x="0px" y="0px"
	 width="444.531px" height="444.531px" viewBox="0 0 444.531 444.531" enable-background="new 0 0 444.531 444.531"
	 xml:space="preserve">
<g>
	<path fill="#E6C612" d="M213.13,222.409L351.881,83.653c7.05-7.043,10.566-15.657,10.566-25.841
		c0-10.183-3.518-18.793-10.566-25.835l-21.409-21.416C323.432,3.521,314.817,0,304.637,0c-10.181,0-18.791,3.521-25.842,10.561
		L92.649,196.425c-7.044,7.043-10.566,15.656-10.566,25.841s3.521,18.791,10.566,25.837l186.146,185.863
		c7.051,7.043,15.66,10.564,25.842,10.564c10.181,0,18.795-3.521,25.834-10.564l21.409-21.412
		c7.05-7.039,10.566-15.604,10.566-25.697c0-10.084-3.518-18.746-10.566-25.978L213.13,222.409z"/>
</g>
</svg>
