<?xml version="1.0" encoding="utf-8"?>
<!-- Generator: Adobe Illustrator 15.0.0, SVG Export Plug-In . SVG Version: 6.00 Build 0)  -->
<!DOCTYPE svg PUBLIC "-//W3C//DTD SVG 1.1//EN" "http://www.w3.org/Graphics/SVG/1.1/DTD/svg11.dtd">
<svg version="1.1" id="Layer_1" xmlns="http://www.w3.org/2000/svg" xmlns:xlink="http://www.w3.org/1999/xlink" x="0px" y="0px"
	 width="595.279px" height="841.89px" viewBox="0 0 595.279 841.89" enable-background="new 0 0 595.279 841.89"
	 xml:space="preserve">
<g>
	<g>
		<path fill="#2E2B2B" d="M69.449,639.214C31.163,639.214,0,670.376,0,708.664c0,5.486,4.435,9.922,9.921,9.922h119.057
			c5.486,0,9.921-4.436,9.921-9.922C138.899,670.376,107.736,639.214,69.449,639.214z M20.845,698.742
			c3.948-19.395,19.287-34.635,38.683-38.594V678.9H79.37v-18.752c19.396,3.969,34.735,19.199,38.684,38.594H20.845z"/>
	</g>
</g>
<g>
	<g>
		<path fill="#2E2B2B" d="M585.359,549.923h-17.402c-0.545-1.381-1.11-2.75-1.726-4.129l12.313-12.313
			c3.879-3.879,3.879-10.148,0-14.027l-42.087-42.086c-2.054-2.055-4.762-2.947-7.451-2.818c15.726-8.344,26.59-24.684,26.59-43.684
			V172.912c0-27.353-22.254-49.607-49.607-49.607H49.607C22.253,123.305,0,145.559,0,172.912v257.955
			c0,27.354,22.253,49.605,49.606,49.605H179.08l-37.483,69.451h-2.698h-14.882c-19.148,0-34.725,15.576-34.725,34.725
			c0,19.146,15.576,34.725,34.725,34.725h213.309c0,5.486,4.435,9.92,9.921,9.92h17.402c0.546,1.379,1.111,2.748,1.727,4.129
			l-12.313,12.311c-3.88,3.881-3.88,10.15,0,14.029l42.086,42.086c3.88,3.881,10.149,3.881,14.029,0l12.313-12.313
			c1.379,0.615,2.748,1.182,4.127,1.727v17.402c0,5.486,4.435,9.922,9.921,9.922h59.528c5.486,0,9.922-4.436,9.922-9.922v-17.402
			c1.379-0.545,2.748-1.111,4.127-1.727l12.313,12.313c3.879,3.881,10.149,3.881,14.028,0l42.087-42.086
			c3.879-3.879,3.879-10.148,0-14.029l-12.313-12.311c0.615-1.381,1.181-2.75,1.726-4.129h17.402c5.486,0,9.921-4.434,9.921-9.92
			v-59.529C595.28,554.357,590.845,549.923,585.359,549.923z M19.843,172.912c0-16.41,13.354-29.764,29.764-29.764h456.381
			c16.41,0,29.765,13.354,29.765,29.764V381.26H19.843V172.912z M49.607,460.63c-16.41,0-29.764-13.354-29.764-29.764v-29.764
			h515.909v29.764c0,16.41-13.354,29.764-29.765,29.764h-9.921h-59.528h-76.652H195.708H49.607z M522.299,477.498l-12.184,12.182
			c-1.379-0.613-2.748-1.18-4.128-1.725v-7.482C511.733,480.472,517.159,479.302,522.299,477.498z M426.617,480.472v7.482
			c-1.379,0.545-2.748,1.111-4.127,1.725l-9.207-9.207H426.617z M393.033,480.472l-8.552,8.553l-5.824-8.553H393.033z
			 M337.325,599.529H124.017c-8.205,0-14.882-6.676-14.882-14.881s6.677-14.883,14.882-14.883h14.882h8.611h189.815V599.529z
			 M164.144,549.912l37.478-69.439h153.026l15.557,22.83l-16.142,16.143c-3.879,3.879-3.879,10.148,0,14.027l12.313,12.313
			c-0.615,1.379-1.181,2.748-1.727,4.127h-17.402H164.144z M575.438,609.451h-14.476c-4.336,0-8.155,2.807-9.465,6.936
			c-1.508,4.791-3.542,9.672-6.052,14.475c-2.005,3.85-1.28,8.543,1.785,11.607l10.279,10.279l-28.058,28.057l-10.279-10.277
			c-3.075-3.066-7.758-3.781-11.607-1.787c-4.802,2.51-9.684,4.545-14.476,6.053c-4.137,1.32-6.944,5.139-6.944,9.475v14.475H446.46
			v-14.475c0-4.336-2.808-8.154-6.936-9.465c-4.792-1.508-9.673-3.541-14.475-6.053c-3.85-1.994-8.543-1.279-11.608,1.787
			l-10.278,10.277l-28.058-28.057l10.278-10.279c3.065-3.064,3.79-7.758,1.786-11.607c-2.51-4.803-4.544-9.684-6.052-14.475
			c-1.32-4.139-5.14-6.945-9.476-6.945h-14.475v-39.686h14.475c4.336,0,8.155-2.809,9.465-6.936
			c1.509-4.791,3.542-9.672,6.053-14.475c2.004-3.85,1.279-8.543-1.786-11.607l-10.278-10.279l28.058-28.057l10.278,10.277
			c3.065,3.076,7.759,3.791,11.607,1.787c4.803-2.512,9.684-4.545,14.476-6.053c4.138-1.32,6.945-5.139,6.945-9.475v-14.477h39.686
			v14.477c0,4.336,2.808,8.154,6.935,9.465c4.792,1.508,9.673,3.541,14.476,6.051c3.849,2.006,8.532,1.291,11.607-1.785
			l10.278-10.277l28.058,28.057l-10.278,10.279c-3.065,3.064-3.79,7.758-1.786,11.607c2.511,4.801,4.544,9.684,6.053,14.475
			c1.319,4.137,5.139,6.945,9.475,6.945h14.476V609.451z"/>
	</g>
</g>
<g>
	<g>
		<path fill="#2E2B2B" d="M466.303,530.08c-32.83,0-59.528,26.699-59.528,59.527c0,32.83,26.698,59.529,59.528,59.529
			c32.829,0,59.527-26.699,59.527-59.529C525.83,556.779,499.132,530.08,466.303,530.08z M466.303,629.292
			c-21.887,0-39.686-17.799-39.686-39.686c0-21.885,17.799-39.684,39.686-39.684c21.886,0,39.685,17.799,39.685,39.684
			C505.988,611.494,488.189,629.292,466.303,629.292z"/>
	</g>
</g>
<g>
	<g>
		<path fill="#E6C612" d="M195.52,199.769l-14.028-14.029l-69.45,69.45c-3.879,3.879-3.879,10.149,0,14.028l69.45,69.45
			l14.028-14.029l-62.435-62.435L195.52,199.769z"/>
	</g>
</g>
<g>
	<g>
		<path fill="#E6C612" d="M413.789,255.189l-69.449-69.45l-14.029,14.029l62.435,62.435l-62.435,62.435l14.029,14.029l69.449-69.45
			C417.668,265.339,417.668,259.068,413.789,255.189z"/>
	</g>
</g>
<g>
	<g>
		
			<rect x="163.089" y="242.39" transform="matrix(-0.4472 0.8944 -0.8944 -0.4472 606.1337 130.0104)" fill="#2E2B2B" width="199.605" height="19.842"/>
	</g>
</g>
<g>
	<g>
		<rect x="386.932" y="321.731" fill="#2E2B2B" width="19.843" height="19.843"/>
	</g>
</g>
<g>
	<g>
		<rect x="426.617" y="321.731" fill="#2E2B2B" width="19.843" height="19.843"/>
	</g>
</g>
<g>
	<g>
		<rect x="466.303" y="321.731" fill="#2E2B2B" width="19.843" height="19.843"/>
	</g>
</g>
</svg>
