<?xml version="1.0" encoding="utf-8"?>
<!-- Generator: Adobe Illustrator 15.0.0, SVG Export Plug-In . SVG Version: 6.00 Build 0)  -->
<!DOCTYPE svg PUBLIC "-//W3C//DTD SVG 1.1//EN" "http://www.w3.org/Graphics/SVG/1.1/DTD/svg11.dtd">
<svg version="1.1" id="Calque_1" xmlns="http://www.w3.org/2000/svg" xmlns:xlink="http://www.w3.org/1999/xlink" x="0px" y="0px"
	 width="595.279px" height="841.89px" viewBox="0 0 595.279 841.89" enable-background="new 0 0 595.279 841.89"
	 xml:space="preserve">
<path fill="#E6C612" d="M367.4,525.583c-6.418,0-11.627,5.209-11.627,11.627s5.209,11.627,11.627,11.627
	c6.417,0,11.626-5.209,11.626-11.627S373.817,525.583,367.4,525.583z"/>
<path fill="#2B2E2E" d="M537.147,123.305H58.133C26.078,123.305,0,149.383,0,181.438V537.21c0,32.055,26.078,58.133,58.133,58.133
	h181.374v53.482h-11.626c-15.523,0-30.116,6.049-41.103,17.031c-10.981,10.986-17.03,25.578-17.03,41.102
	c0,6.422,5.204,11.627,11.626,11.627h232.531c6.422,0,11.627-5.205,11.627-11.627c0-32.055-26.078-58.133-58.133-58.133h-11.627
	v-53.482h181.374c32.056,0,58.133-26.078,58.133-58.133V181.438C595.28,149.383,569.202,123.305,537.147,123.305z M58.133,146.558
	h479.014c19.234,0,34.88,15.646,34.88,34.879v297.64h-53.481V211.667c0-6.422-5.205-11.627-11.627-11.627h-93.013
	c-6.422,0-11.627,5.205-11.627,11.627v267.411h-58.196c-0.122-12.025-0.436-23.879-0.936-35.379
	c-2.034-47.351-6.672-79.07-9.083-93.022c23.989-17.662,30.538-50.398,15.873-75.831l-40.298-69.796
	c-2.08-3.597-5.918-5.813-10.068-5.813c-4.156,0-7.993,2.216-10.069,5.813l-40.315,69.8c-13.825,23.979-8.925,55.04,12.794,73.37
	c-2.517,13.911-7.594,46.766-9.802,95.456c-0.521,11.623-0.854,23.486-0.98,35.402h-58.196V304.679c0-1.844-0.437-3.524-1.149-5.018
	c-0.031-0.059-0.05-0.123-0.077-0.182l-46.506-93.013c-1.972-3.938-5.995-6.427-10.4-6.427s-8.43,2.489-10.4,6.427l-46.507,93.013
	c-0.026,0.059-0.045,0.123-0.072,0.182c-0.727,1.508-1.153,3.215-1.153,5.018v174.398H23.253v-297.64
	C23.253,162.204,38.899,146.558,58.133,146.558z M425.532,479.078V223.293h69.759v23.253h-11.626
	c-6.422,0-11.627,5.205-11.627,11.626c0,6.422,5.205,11.627,11.627,11.627h11.626v34.879h-11.626
	c-6.422,0-11.627,5.205-11.627,11.627s5.205,11.626,11.627,11.626h11.626v34.879h-11.626c-6.422,0-11.627,5.205-11.627,11.627
	s5.205,11.626,11.627,11.626h11.626v46.506h-11.626c-6.422,0-11.627,5.205-11.627,11.627s5.205,11.627,11.627,11.627h11.626v23.252
	H425.532z M299.571,362.008c4.224,0,8.429-0.486,12.544-1.394c2.157,13.829,5.327,38.299,7.202,71.958H276.04
	c1.967-33.635,5.286-58.487,7.58-72.784C288.771,361.254,294.134,362.008,299.571,362.008z M299.571,338.755
	c-26.573,0-43.709-28.921-30.243-52.283l30.243-52.356l30.224,52.351C343.21,309.734,326.311,338.755,299.571,338.755z
	 M274.973,455.826h45.366c0.245,7.639,0.413,15.408,0.495,23.252H274.45C274.536,471.285,274.714,463.513,274.973,455.826z
	 M146.494,479.078V316.306h23.254v162.771H146.494z M99.989,479.078V316.306h23.253v162.771H99.989z M107.173,293.053l27.695-55.39
	l27.694,55.39H107.173z M400.285,695.332H194.981c1.708-4.846,4.497-9.287,8.239-13.033c6.594-6.59,15.351-10.219,24.661-10.219
	H367.4C382.559,672.08,395.49,681.798,400.285,695.332z M332.52,648.826h-69.76v-53.482h69.76V648.826z M537.147,572.091H58.133
	c-19.234,0-34.88-15.646-34.88-34.881v-34.879h548.773v34.879C572.027,556.445,556.381,572.091,537.147,572.091z"/>
<path fill="#E6C612" d="M320.893,525.583h-69.759c-6.422,0-11.627,5.205-11.627,11.627s5.205,11.627,11.627,11.627h69.759
	c6.422,0,11.627-5.205,11.627-11.627S327.315,525.583,320.893,525.583z"/>
</svg>
