<?xml version="1.0" encoding="utf-8"?>
<!-- Generator: Adobe Illustrator 15.0.0, SVG Export Plug-In . SVG Version: 6.00 Build 0)  -->
<!DOCTYPE svg PUBLIC "-//W3C//DTD SVG 1.1//EN" "http://www.w3.org/Graphics/SVG/1.1/DTD/svg11.dtd">
<svg version="1.1" id="Capa_1" xmlns="http://www.w3.org/2000/svg" xmlns:xlink="http://www.w3.org/1999/xlink" x="0px" y="0px"
	 width="595.279px" height="841.89px" viewBox="0 0 595.279 841.89" enable-background="new 0 0 595.279 841.89"
	 xml:space="preserve">
<g transform="translate(-1)">
	<g>
		<g>
			<path fill="#2E2B2B" d="M149.424,166.565c-5.534-4.728-13.703-4.664-19.163,0.149l-39.926,35.729v-4.682
				c0-5.479-4.44-9.919-9.919-9.919s-9.919,4.44-9.919,9.919v22.447l-16.536,14.8c-4.021,3.667-4.336,9.89-0.706,13.946
				s9.85,4.428,13.938,0.834l72.738-65.11l72.738,65.11c2.634,2.403,6.355,3.207,9.747,2.106c3.392-1.101,5.931-3.937,6.651-7.43
				c0.721-3.492-0.488-7.103-3.167-9.457L149.424,166.565z"/>
			<path fill="#2E2B2B" d="M199.448,262.237c-5.479,0-9.919,4.44-9.919,9.919v69.435H90.335v-69.435c0-5.479-4.44-9.919-9.919-9.919
				s-9.919,4.44-9.919,9.919v75.734c0.098,7.573,6.314,13.634,13.888,13.54h111.096c7.577,0.077,13.788-5.992,13.887-13.57v-75.704
				C209.366,266.677,204.925,262.237,199.448,262.237z"/>
			<path fill="#E6C612" d="M139.932,381.269c-38.348,0-69.435,31.087-69.435,69.434c0,38.348,31.088,69.436,69.435,69.436
				s69.435-31.088,69.435-69.436C209.323,412.374,178.262,381.312,139.932,381.269z M90.335,450.703
				c0.03-23.559,16.601-43.859,39.677-48.604v42.981l-36.701,22.01C91.39,461.837,90.383,456.294,90.335,450.703z M103.533,484.097
				l34.86-20.916l28.846,28.846C146.975,505.546,119.865,502.171,103.533,484.097z M181.265,478.001l-31.414-31.406v-44.497
				c16.148,3.272,29.611,14.364,35.913,29.588C192.064,446.912,190.378,464.273,181.265,478.001z"/>
			<path fill="#2E2B2B" d="M536.702,301.914v-33.954c-0.006-8.637-7.006-15.637-15.643-15.643h-28.23
				c-8.637,0.006-15.637,7.006-15.643,15.643v33.954h-19.839V239.72c-0.011-9.473-7.687-17.149-17.16-17.161h-25.195
				c-9.472,0.012-17.148,7.688-17.16,17.161v62.194h-19.838V192.801c0-10.957-8.882-19.839-19.839-19.839h-19.839
				c-10.957,0-19.839,8.882-19.839,19.839v109.112h-9.919c-5.479,0-9.919-4.441-9.919-9.919V172.963
				c0-5.479-4.441-9.919-9.919-9.919c-5.477,0-9.919,4.44-9.919,9.919v119.031c0,16.435,13.323,29.758,29.758,29.758h228.145
				c5.479,0,9.919-4.44,9.919-9.919C546.623,306.355,542.181,301.914,536.702,301.914z M358.156,301.914h-19.839V192.801h19.839
				V301.914z M437.51,301.914h-19.839v-59.516h19.839V301.914z M516.864,301.914h-19.838v-29.758h19.839L516.864,301.914
				L516.864,301.914z"/>
			<path fill="#2E2B2B" d="M536.702,500.3H308.559c-5.479,0-9.919-4.441-9.919-9.92v-15.732l32.664-32.664
				c3.918-3.76,10.107-3.76,14.025,0l11.626,11.627c11.62,11.617,30.457,11.617,42.076,0l41.384-41.384
				c3.918-3.762,10.107-3.762,14.025,0l11.626,11.636c11.633,11.584,30.443,11.584,42.077,0l35.57-35.571
				c3.76-3.892,3.706-10.079-0.12-13.905c-3.827-3.827-10.014-3.88-13.905-0.121l-35.571,35.561c-3.873,3.872-10.152,3.872-14.025,0
				l-11.625-11.625c-11.775-11.238-30.304-11.238-42.077,0l-41.384,41.382c-3.873,3.873-10.152,3.873-14.025,0l-11.615-11.625
				c-11.777-11.239-30.31-11.239-42.088,0l-18.638,18.639V371.35c0-5.479-4.441-9.919-9.919-9.919c-5.477,0-9.919,4.441-9.919,9.919
				V490.38c0,16.436,13.323,29.758,29.758,29.758h228.144c5.479,0,9.919-4.441,9.919-9.918
				C546.621,504.74,542.181,500.3,536.702,500.3z"/>
			<path fill="#2E2B2B" d="M596.218,584.156V178.369c1.38-28.844-20.764-53.401-49.597-55.002H50.658
				c-28.833,1.602-50.977,26.159-49.597,55.002v405.787c-1.385,28.848,20.76,53.412,49.597,55.014h158.708v19.838H169.69
				c-21.912,0-39.677,17.764-39.677,39.678v9.918c0,5.479,4.44,9.92,9.919,9.92h317.417c5.479,0,9.919-4.441,9.919-9.92v-9.918
				c0-21.914-17.764-39.678-39.677-39.678h-39.677v-19.838h158.708C575.459,637.568,597.603,613.003,596.218,584.156z
				 M427.59,678.847c10.957,0,19.839,8.881,19.839,19.838H149.851c0-10.957,8.882-19.838,19.839-19.838H427.59z M229.205,659.007
				v-19.838h138.87v19.838H229.205z M546.621,619.332H50.658c-17.855-1.639-31.1-17.293-29.758-35.174v-24.342h555.48v24.342
				C577.722,602.039,564.479,617.693,546.621,619.332z M576.379,178.369v361.607H20.901V178.369
				c-1.342-17.879,11.903-33.53,29.758-35.165h495.964C564.477,144.839,577.722,160.489,576.379,178.369z"/>
		</g>
	</g>
</g>
</svg>
