<?xml version="1.0" encoding="utf-8"?>
<!-- Generator: Adobe Illustrator 15.0.0, SVG Export Plug-In . SVG Version: 6.00 Build 0)  -->
<!DOCTYPE svg PUBLIC "-//W3C//DTD SVG 1.1//EN" "http://www.w3.org/Graphics/SVG/1.1/DTD/svg11.dtd">
<svg version="1.1" id="Capa_1" xmlns="http://www.w3.org/2000/svg" xmlns:xlink="http://www.w3.org/1999/xlink" x="0px" y="0px"
	 width="595.279px" height="841.89px" viewBox="0 0 595.279 841.89" enable-background="new 0 0 595.279 841.89"
	 xml:space="preserve">
<g>
	<path fill="#2E2B2B" d="M522.912,248.386l-13.969-13.969L411.4,136.863c-0.01-0.01-0.01-0.01-0.01-0.01l-7.913-7.913
		c-3.645-3.633-8.479-5.635-13.62-5.635H91.991c-12.183,0-25.279,9.401-25.279,30.031V523.58v169.727v4.752
		c0,8.592,8.633,16.955,18.845,19.596c0.522,0.143,1.025,0.338,1.561,0.439c1.601,0.318,3.232,0.492,4.875,0.492h411.297
		c1.644,0,3.274-0.174,4.876-0.492c0.533-0.104,1.036-0.299,1.561-0.439c10.212-2.641,18.844-11.004,18.844-19.596v-4.752V523.58
		V266.768C528.568,258.896,527.614,253.076,522.912,248.386z M405.406,159.894l86.572,86.572h-86.572V159.894z M91.991,698.058
		c-0.729,0-1.386-0.256-2.032-0.502c-1.591-0.76-2.72-2.361-2.72-4.25V544.107H508.04v149.199c0,1.889-1.129,3.49-2.72,4.25
		c-0.646,0.246-1.303,0.502-2.032,0.502H91.991L91.991,698.058z M87.24,523.58V153.336c0-2.228,0.339-9.504,4.752-9.504h293.483
		c-0.339,1.293-0.596,2.627-0.596,4.013v116.891c-5.46-4.927-12.613-8.005-20.526-8.005c-5.676,0-10.264,4.598-10.264,10.263
		s4.588,10.264,10.264,10.264c5.665,0,10.263,4.608,10.263,10.263v41.054c0,12.316,5.563,23.257,14.186,30.79
		c-8.621,7.533-14.186,18.474-14.186,30.791v41.054c0,5.654-4.598,10.264-10.263,10.264c-5.676,0-10.264,4.598-10.264,10.264
		c0,5.664,4.588,10.264,10.264,10.264c16.976,0,30.79-13.813,30.79-30.791v-41.053c0-11.321,9.206-20.527,20.526-20.527
		c5.676,0,10.264-4.598,10.264-10.264s-4.588-10.263-10.264-10.263c-11.32,0-20.526-9.207-20.526-20.527V287.52
		c0-7.913-3.09-15.066-8.006-20.527h116.891c1.386,0,2.72-0.256,4.013-0.595c0,0.154,0.012,0.215,0.012,0.37V523.58H87.24z"/>
	<path fill="#E6C612" d="M260.22,651.154c-0.195,4.578-1.757,7.842-4.701,9.75c-2.945,1.91-6.907,2.875-11.854,2.875
		c-1.96,0-4.063-0.227-6.312-0.699c-2.248-0.471-4.403-1.006-6.456-1.611c-2.063-0.613-3.951-1.262-5.687-1.959
		c-1.733-0.697-3.068-1.387-4.003-2.033l-7.152,11.361c1.866,1.406,4.155,2.67,6.876,3.787c2.71,1.119,5.542,2.125,8.487,3.018
		c2.945,0.896,5.799,1.541,8.561,1.963c2.761,0.422,5.162,0.637,7.226,0.637c4.105,0,8.118-0.4,11.998-1.191
		c3.879-0.789,7.317-2.195,10.314-4.207c2.985-2.012,5.368-4.68,7.152-7.996c1.776-3.314,2.669-7.42,2.669-12.275v-80.547H260.22
		V651.154z"/>
	<path fill="#E6C612" d="M349.809,626.871c-3.223-2.34-6.712-4.33-10.458-5.963c-3.746-1.631-7.205-3.314-10.387-5.049
		c-3.192-1.734-5.852-3.736-7.995-6.035c-2.155-2.299-3.224-5.316-3.224-9.053c0-1.498,0.369-3.068,1.118-4.701
		c0.739-1.631,1.775-3.109,3.09-4.424c1.304-1.313,2.803-2.4,4.495-3.293c1.693-0.895,3.459-1.428,5.337-1.611
		c3.366-0.277,6.127-0.33,8.282-0.145c2.146,0.195,3.88,0.514,5.193,0.984c1.304,0.473,2.319,0.936,3.018,1.406
		c0.698,0.473,1.334,0.842,1.899,1.119c0.092-0.094,0.369-0.564,0.841-1.406c0.462-0.842,1.026-1.898,1.684-3.16
		c0.646-1.264,1.354-2.617,2.104-4.064c0.739-1.457,1.406-2.781,1.961-4.004c-2.72-1.775-6.271-3.068-10.664-3.857
		c-4.402-0.791-8.755-1.191-13.045-1.191c-4.208,0-8.211,0.646-11.998,1.961s-7.102,3.211-9.966,5.688
		c-2.863,2.473-5.121,5.488-6.806,9.053c-1.683,3.561-2.545,7.635-2.545,12.213c0,5.049,1.067,9.258,3.224,12.625
		c2.146,3.365,4.864,6.291,8.139,8.764c3.264,2.475,6.774,4.629,10.521,6.457c3.734,1.826,7.226,3.643,10.458,5.469
		c3.232,1.828,5.911,3.859,8.066,6.107c2.146,2.248,3.223,4.957,3.223,8.139c0,5.244-1.52,9.197-4.557,11.855
		c-3.038,2.658-7.421,4.002-13.117,4.002c-1.878,0-3.89-0.195-6.035-0.564c-2.154-0.369-4.311-0.861-6.454-1.479
		c-2.155-0.615-4.229-1.262-6.24-1.959c-2.012-0.699-3.675-1.428-4.979-2.176l-2.944,12.066c1.581,1.406,3.489,2.6,5.687,3.582
		c2.196,0.986,4.505,1.756,6.948,2.32c2.422,0.564,4.844,0.965,7.226,1.189c2.381,0.227,4.7,0.35,6.948,0.35
		c5.234,0,9.914-0.791,14.03-2.381c4.104-1.592,7.574-3.715,10.386-6.385c2.813-2.668,4.979-5.758,6.528-9.258
		c1.55-3.498,2.318-7.133,2.318-10.879c0-5.521-1.078-10.037-3.223-13.537C355.721,632.136,353.031,629.21,349.809,626.871z"/>
	<path fill="#2E2B2B" d="M210.401,328.574V287.52c0-5.655,4.599-10.263,10.264-10.263c5.676,0,10.265-4.598,10.265-10.264
		s-4.589-10.263-10.265-10.263c-16.976,0-30.79,13.814-30.79,30.79v41.054c0,11.32-9.207,20.527-20.526,20.527
		c-5.677,0-10.265,4.598-10.265,10.263c0,5.665,4.588,10.264,10.265,10.264c11.319,0,20.526,9.206,20.526,20.527v41.054
		c0,16.977,13.814,30.791,30.79,30.791c5.676,0,10.265-4.6,10.265-10.264c0-5.666-4.589-10.264-10.265-10.264
		c-5.665,0-10.264-4.609-10.264-10.264v-41.055c0-12.316-5.563-23.257-14.185-30.791
		C204.838,351.831,210.401,340.89,210.401,328.574z"/>
	<circle fill="#2E2B2B" cx="292.508" cy="323.442" r="15.395"/>
	<path fill="#2E2B2B" d="M292.508,379.891c-5.676,0-10.263,4.598-10.263,10.264v30.791c0,5.667,4.587,10.263,10.263,10.263
		c5.677,0,10.265-4.598,10.265-10.263v-30.791C302.772,384.489,298.184,379.891,292.508,379.891z"/>
</g>
</svg>
