<?xml version="1.0" encoding="utf-8"?>
<!-- Generator: Adobe Illustrator 15.0.0, SVG Export Plug-In . SVG Version: 6.00 Build 0)  -->
<!DOCTYPE svg PUBLIC "-//W3C//DTD SVG 1.1//EN" "http://www.w3.org/Graphics/SVG/1.1/DTD/svg11.dtd">
<svg version="1.1" id="Layer_1" xmlns="http://www.w3.org/2000/svg" xmlns:xlink="http://www.w3.org/1999/xlink" x="0px" y="0px"
	 width="595.279px" height="841.89px" viewBox="0 0 595.279 841.89" enable-background="new 0 0 595.279 841.89"
	 xml:space="preserve">
<g>
	<g>
		<path fill="#2E2B2B" d="M565.516,411.024v-218.27c0-27.353-22.254-49.607-49.606-49.607H79.37
			c-27.353,0-49.605,22.254-49.605,49.607v148.82C13.354,341.574,0,354.929,0,371.338v297.64c0,16.41,13.354,29.764,29.765,29.764
			h218.27c16.41,0,29.764-13.354,29.764-29.764h83.15c9.356,0,17.979-4.266,23.653-11.697c5.675-7.43,7.52-16.875,5.06-25.895
			l-19.506-71.543h56.463v109.135c0,16.41,13.354,29.764,29.765,29.764h109.135c16.41,0,29.764-13.354,29.764-29.764V440.789
			C595.28,424.378,581.927,411.024,565.516,411.024z M257.954,668.978c0,5.467-4.454,9.922-9.921,9.922H29.764
			c-5.468,0-9.922-4.455-9.922-9.922v-19.842h238.111V668.978L257.954,668.978z M257.954,629.292H19.843V411.024h238.111V629.292
			L257.954,629.292z M257.954,391.181H19.843v-19.843c0-5.467,4.454-9.921,9.922-9.921h218.27c5.467,0,9.921,4.455,9.921,9.921
			L257.954,391.181L257.954,391.181z M370.522,636.605c0.824,3.006,0.209,6.152-1.687,8.631c-1.896,2.48-4.763,3.9-7.889,3.9h-83.15
			v-19.844h90.73L370.522,636.605z M277.797,609.451v-49.607h71.792l13.531,49.607H277.797z M426.617,540.001h-148.82v-59.529
			h148.82V540.001z M426.617,440.789v19.842h-148.82v-89.292c0-16.41-13.354-29.764-29.764-29.764H49.607v-148.82
			c0-16.41,13.354-29.764,29.764-29.764H515.91c16.41,0,29.765,13.354,29.765,29.764v218.27h-89.292
			C439.971,411.024,426.617,424.378,426.617,440.789z M575.438,668.978c0,5.467-4.455,9.922-9.922,9.922H456.382
			c-5.468,0-9.921-4.455-9.921-9.922v-19.842h128.978V668.978z M575.438,629.292H446.461v-148.82h128.978V629.292z M575.438,460.63
			H446.461v-19.842c0-5.467,4.453-9.922,9.921-9.922h109.135c5.467,0,9.922,4.455,9.922,9.922V460.63z"/>
	</g>
</g>
<g>
	<g>
		
			<rect x="51.31" y="530.073" transform="matrix(0.7071 -0.7071 0.7071 0.7071 -358.5905 214.2902)" fill="#E6C612" width="56.123" height="19.843"/>
	</g>
</g>
<g>
	<g>
		
			<rect x="74.556" y="520.149" transform="matrix(0.7071 -0.7071 0.7071 0.7071 -328.3222 267.5016)" fill="#2E2B2B" width="168.372" height="19.843"/>
	</g>
</g>
<g>
	<g>
		
			<rect x="106.725" y="460.634" transform="matrix(0.7071 -0.7071 0.7071 0.7071 -289.1476 243.0542)" fill="#2E2B2B" width="84.181" height="19.842"/>
	</g>
</g>
<g>
	<g>
		
			<rect x="465.939" y="525.129" transform="matrix(0.7071 -0.7071 0.7071 0.7071 -231.5954 510.9798)" fill="#E6C612" width="70.142" height="19.843"/>
	</g>
</g>
<g>
	<g>
		
			<rect x="485.777" y="564.858" transform="matrix(0.7071 -0.7071 0.7071 0.7071 -253.8771 536.6439)" fill="#2E2B2B" width="70.142" height="19.842"/>
	</g>
</g>
<g>
	<g>
		
			<rect x="255.541" y="282.05" transform="matrix(0.7071 -0.7071 0.7071 0.7071 -119.2805 295.9695)" fill="#E6C612" width="84.18" height="19.842"/>
	</g>
</g>
<g>
	<g>
		
			<rect x="344.84" y="262.207" transform="matrix(0.7071 -0.7071 0.7071 0.7071 -79.0943 353.3044)" fill="#2E2B2B" width="84.179" height="19.842"/>
	</g>
</g>
<g>
	<g>
		
			<rect x="289.412" y="331.663" transform="matrix(0.7071 -0.7071 0.7071 0.7071 -148.551 324.5414)" fill="#E6C612" width="56.123" height="19.843"/>
	</g>
</g>
<g>
	<g>
		
			<rect x="338.942" y="212.68" transform="matrix(0.7071 -0.7071 0.7071 0.7071 -49.8889 324.7587)" fill="#2E2B2B" width="56.263" height="19.842"/>
	</g>
</g>
<g>
	<g>
		<rect x="69.449" y="182.833" fill="#2E2B2B" width="19.843" height="19.843"/>
	</g>
</g>
<g>
	<g>
		<rect x="109.135" y="182.833" fill="#2E2B2B" width="19.844" height="19.843"/>
	</g>
</g>
<g>
	<g>
		<rect x="148.82" y="182.833" fill="#2E2B2B" width="19.843" height="19.843"/>
	</g>
</g>
</svg>
